<svg width="1920" height="1569" viewBox="0 0 1920 1569" fill="none" xmlns="http://www.w3.org/2000/svg">
<g opacity="0.2">
<path d="M-78.4213 443.771L-80.0381 441.19C15.2834 381.924 99.8777 348.006 178.522 337.439C248.899 327.982 313.073 337.588 374.646 366.782C489.072 421.03 574.207 532.699 664.353 650.933C782.337 805.67 904.297 965.669 1098.34 988.257C1270.13 1008.3 1298.39 897.706 1334.16 757.731C1360.73 653.645 1390.9 535.672 1488.51 449.621C1601.23 350.266 1783.77 312.546 2046.56 334.293L2046.3 337.346C1784.37 315.669 1602.57 353.16 1490.52 451.915C1393.61 537.333 1363.58 654.82 1337.11 758.493C1319.72 826.601 1303.26 890.911 1269.76 934.326C1232.57 982.524 1177.97 1000.62 1097.99 991.305C902.681 968.55 780.258 808.048 661.903 652.814C571.992 534.904 487.058 423.539 373.329 369.552C244.713 308.571 101.177 332.139 -78.4417 443.807L-78.4213 443.771Z" fill="url(#paint0_linear_40_416)"/>
<path d="M-97.6007 444.704L-98.9908 442.3C254.316 239.266 424.654 428.89 604.996 629.563C739.965 779.749 879.468 935.047 1105.46 940.958C1286.75 945.685 1320.81 843.381 1360.27 724.889C1388.77 639.328 1421.04 542.341 1515.45 473.322C1623.65 394.189 1796.74 364.286 2044.61 381.94L2044.43 384.705C1797.23 367.109 1624.75 396.849 1517.09 475.539C1423.4 544.036 1391.25 640.573 1362.92 725.76C1323.11 845.272 1288.73 948.525 1105.42 943.714C878.227 937.767 738.276 782.022 602.95 631.394C423.363 431.534 253.759 242.758 -97.5804 444.668L-97.6007 444.704Z" fill="url(#paint1_linear_40_416)"/>
<path d="M-116.725 445.62L-117.888 443.395C23.9846 369.626 144.035 356.649 259.889 402.635C362.88 443.502 448.82 525.32 539.785 611.968C692.485 757.374 850.372 907.656 1112.67 893.72C1302.58 883.602 1343.09 792.735 1385.96 696.549C1448.1 557.116 1518.53 399.076 2042.66 429.678L2042.53 432.19C1520.11 401.728 1450.07 558.915 1388.23 697.58C1345.03 794.514 1304.22 886.057 1112.81 896.249C994.938 902.525 887.131 875.543 783.008 813.968C691.095 759.537 613.277 685.422 538.048 613.837C360.327 444.664 192.511 284.835 -116.766 445.69L-116.725 445.62Z" fill="url(#paint2_linear_40_416)"/>
<path d="M-135.848 446.536L-136.75 444.509C-13.711 388.441 93.5569 380.888 200.806 420.824C296.408 456.389 380.079 525.175 468.659 598.018C631.72 732.082 816.521 884.017 1119.97 846.431C1317.18 822.03 1362.75 749.294 1410.95 672.332C1477.72 565.743 1546.71 455.545 2040.81 477.33L2040.71 479.534C1547.89 457.825 1479.22 567.459 1412.82 673.503C1364.33 750.959 1318.52 824.119 1120.24 848.657C984.176 865.477 860.436 846.195 741.949 789.603C637.576 739.794 550.982 668.568 467.24 599.742C287.487 451.945 132.276 324.344 -135.848 446.536Z" fill="url(#paint3_linear_40_416)"/>
<path d="M-155.029 447.467L-155.724 445.654C-51.0585 405.999 43.0481 403.793 140.499 438.684C227.544 469.827 307.02 526.964 391.154 587.449C572.013 717.43 777.037 864.752 1127.2 799.248C1328.44 761.591 1384.25 703.661 1433.51 652.498C1506.19 577.005 1568.97 511.805 2038.87 525.032L2038.83 526.984C1569.83 513.755 1507.3 578.679 1434.91 653.824C1385.46 705.158 1329.43 763.385 1127.58 801.115C776.623 866.773 571.231 719.191 390.075 588.991C219.912 466.739 72.9722 361.096 -154.973 447.452L-155.029 447.467Z" fill="url(#paint4_linear_40_416)"/>
<path d="M-174.152 448.383L-174.585 446.768C14.947 392.7 150.266 479.253 306.939 579.453C505.671 706.525 730.927 850.605 1134.53 751.98C1325.17 705.375 1394.12 666.664 1444.5 638.363C1527.97 591.464 1569.92 567.899 2037 572.72L2036.97 574.398C1570.31 569.585 1528.55 593.07 1445.31 639.818C1394.88 668.134 1325.77 706.946 1134.91 753.609C954.602 797.655 793.617 796.979 642.753 751.539C510.71 711.741 406.664 645.221 306.033 580.86C149.692 480.899 14.6558 394.509 -174.152 448.383Z" fill="url(#paint5_linear_40_416)"/>
<path d="M-193.311 449.278L-193.558 447.912C-42.2663 422.326 76.9956 492.17 215.106 572.991C420.549 693.251 676.211 842.882 1141.79 704.76C1194.27 689.207 1237.2 676.24 1275.06 664.814C1410.65 623.905 1518.7 605.927 1599.19 610.88C1671.87 615.37 1793.55 622.82 2035.05 620.456L2035.05 621.827C1793.5 624.205 1671.83 616.756 1599.11 612.245C1518.77 607.289 1410.89 625.252 1275.47 666.135C1237.61 677.562 1194.68 690.529 1142.2 706.082C934.574 767.685 751.456 778.192 582.439 738.183C435.067 703.328 317.833 634.701 214.448 574.212C76.57 493.478 -42.4651 423.812 -193.276 449.299L-193.311 449.278Z" fill="url(#paint6_linear_40_416)"/>
<path d="M-212.414 450.159L-212.44 449.061C-98.1052 446.718 0.695986 502.019 115.154 566.077C335.728 689.565 610.219 843.194 1149.15 657.512C1285.79 610.424 1373.22 587.654 1432.64 583.64C1489.66 579.793 1521.59 592.815 1562.04 609.344C1633.12 638.378 1730.45 678.138 2033.17 668.143L2033.2 669.241C1730.2 679.219 1632.75 639.433 1561.6 610.358C1521.31 593.876 1489.45 580.894 1432.72 584.723C1373.4 588.742 1286.05 611.518 1149.53 658.575C610.143 844.468 335.389 690.641 114.619 567.086C0.301749 503.11 -98.3934 447.87 -212.399 450.214L-212.414 450.159Z" fill="url(#paint7_linear_40_416)"/>
<path d="M-231.518 451.039L-231.378 450.226C-152.589 464.033 -78.8314 506.287 6.54176 555.248C226.805 681.475 528.486 854.38 1156.48 610.243C1445.37 497.919 1502.75 543.427 1582.11 606.384C1653.28 662.821 1741.8 733.085 2031.24 715.846L2031.28 716.67C1741.55 733.928 1652.85 663.562 1581.58 607.064C1502.44 544.286 1445.22 498.914 1156.78 611.028C877.925 719.443 640.42 756.312 430.754 723.763C249.917 695.666 120.414 621.463 6.16944 555.974C-79.1889 507.069 -152.855 464.821 -231.483 451.06L-231.518 451.039Z" fill="url(#paint8_linear_40_416)"/>
<path d="M0.180558 603.122C-39.8926 579.986 -76.4886 556.127 -110.291 534.116C-159.422 502.125 -205.845 471.886 -250.62 451.92L-250.355 451.461C-205.58 471.427 -159.157 501.666 -109.991 533.677C-13.0151 596.869 99.4859 670.107 255.286 707.568C194.947 693.115 136.507 672.274 78.23 644.465C50.7795 631.347 24.8396 617.406 0.160141 603.158L0.180558 603.122ZM544.039 730.087C709.722 719.447 911.738 671.316 1163.82 562.975C1300.61 504.207 1397.3 484.714 1468.18 501.626C1532.23 516.904 1569.62 560.756 1609.21 607.152C1681.36 691.739 1763.11 787.57 2029.29 763.492L2029.35 764.043C1910.53 774.811 1817.83 762.434 1745.97 726.266C1683.05 694.599 1645.3 650.305 1608.77 607.509C1569.25 561.154 1531.89 517.413 1468.05 502.166C1397.3 485.28 1300.66 504.758 1164.04 563.481C1074.44 601.994 987.532 634.294 905.742 659.522C828.753 683.285 754.019 701.43 683.686 713.501C635.944 721.668 589.179 727.244 544.039 730.087Z" fill="url(#paint9_linear_40_416)"/>
<path d="M-98.6564 593.135C-149.173 557.756 -191.863 520.398 -230.528 486.588C-244.134 474.685 -257.029 463.426 -269.578 452.792L-269.435 452.545C-256.795 463.185 -243.956 474.458 -230.315 486.382C-191.373 520.446 -148.577 557.865 -98.6211 593.156L-98.6564 593.135ZM849.337 646.165C947.256 613.302 1054.16 570.421 1171.14 515.706C1209.07 497.964 1244.73 483.575 1277.17 472.882C1308.21 462.654 1337.39 455.492 1363.86 451.565C1413.01 444.304 1454.49 447.634 1490.79 461.813C1558.53 488.309 1597.56 548.644 1638.89 612.569C1677.1 671.721 1718.16 735.21 1787.47 775.224C1844.03 807.88 1919.38 824.878 2027.42 811.18L2027.45 811.438C1998.25 815.146 1970.35 816.741 1944.59 816.181C1920.13 815.663 1896.77 813.146 1875.21 808.747C1835.59 800.652 1800.96 786.263 1769.5 764.758C1711.25 725.005 1674.37 667.886 1638.68 612.684C1602.94 557.35 1568.85 504.673 1516.42 474.403C1508.34 469.735 1499.8 465.606 1490.74 462.066C1414.87 432.434 1313.38 449.54 1171.33 515.955C1063.63 566.332 959.98 608.549 863.243 641.483C858.619 643.051 853.996 644.618 849.392 646.15L849.337 646.165Z" fill="url(#paint10_linear_40_416)"/>
</g>
<defs>
<linearGradient id="paint0_linear_40_416" x1="1272.79" y1="-112.441" x2="694.123" y2="889.847" gradientUnits="userSpaceOnUse">
<stop stop-color="#D569F7"/>
<stop offset="1" stop-color="#6CE7EE"/>
</linearGradient>
<linearGradient id="paint1_linear_40_416" x1="1254.36" y1="-74.313" x2="691.629" y2="900.366" gradientUnits="userSpaceOnUse">
<stop stop-color="#D569F7"/>
<stop offset="1" stop-color="#6CE7EE"/>
</linearGradient>
<linearGradient id="paint2_linear_40_416" x1="1235.92" y1="-36.095" x2="689.129" y2="910.974" gradientUnits="userSpaceOnUse">
<stop stop-color="#D569F7"/>
<stop offset="1" stop-color="#6CE7EE"/>
</linearGradient>
<linearGradient id="paint3_linear_40_416" x1="1217.56" y1="2.02728" x2="686.729" y2="921.451" gradientUnits="userSpaceOnUse">
<stop stop-color="#D569F7"/>
<stop offset="1" stop-color="#6CE7EE"/>
</linearGradient>
<linearGradient id="paint4_linear_40_416" x1="1199.12" y1="40.1998" x2="684.231" y2="932.014" gradientUnits="userSpaceOnUse">
<stop stop-color="#D569F7"/>
<stop offset="1" stop-color="#6CE7EE"/>
</linearGradient>
<linearGradient id="paint5_linear_40_416" x1="1180.74" y1="78.3578" x2="681.79" y2="942.562" gradientUnits="userSpaceOnUse">
<stop stop-color="#D569F7"/>
<stop offset="1" stop-color="#6CE7EE"/>
</linearGradient>
<linearGradient id="paint6_linear_40_416" x1="1162.26" y1="116.555" x2="679.295" y2="953.078" gradientUnits="userSpaceOnUse">
<stop stop-color="#D569F7"/>
<stop offset="1" stop-color="#6CE7EE"/>
</linearGradient>
<linearGradient id="paint7_linear_40_416" x1="1143.88" y1="154.712" x2="676.855" y2="963.625" gradientUnits="userSpaceOnUse">
<stop stop-color="#D569F7"/>
<stop offset="1" stop-color="#6CE7EE"/>
</linearGradient>
<linearGradient id="paint8_linear_40_416" x1="1125.44" y1="192.885" x2="674.418" y2="974.082" gradientUnits="userSpaceOnUse">
<stop stop-color="#D569F7"/>
<stop offset="1" stop-color="#6CE7EE"/>
</linearGradient>
<linearGradient id="paint9_linear_40_416" x1="1107.01" y1="231.011" x2="669.153" y2="989.401" gradientUnits="userSpaceOnUse">
<stop stop-color="#D569F7"/>
<stop offset="1" stop-color="#6CE7EE"/>
</linearGradient>
<linearGradient id="paint10_linear_40_416" x1="1106.71" y1="237.597" x2="651.418" y2="1026.19" gradientUnits="userSpaceOnUse">
<stop stop-color="#D569F7"/>
<stop offset="1" stop-color="#6CE7EE"/>
</linearGradient>
</defs>
</svg>
